Plot:

A paranormal expert discovers a house that is at the intersection of so-called "highways" transporting souls in the afterlife.

Cast:

Jonas Armstrong...................Simon McNeal
Sophie Ward.......................Mary Florescu
Clive Russell.....................Wyburd
Paul Blair........................Reg Fuller
Romana Abercromby.................Janie
Simon Bamford.....................Derek
James Watson......................Jimmy
Doug Bradley......................Tollington
Gowan Calder......................Janie's Mother
Graham Colquhoun..................Simon's Father
Marcus McLeod.....................Janie's Father
James McAnerney...................Doctor Nigel Blake
Joy McBrinn.......................Waitress
Charlie McFadden..................Joanne



General:

Format : AVI
Format/Info : Audio Video Interleave
File size : 702 MiB
Duration : 1h 40mn
Overall bit rate : 979 Kbps

Video:

ID : 0
Format : MPEG-4 Visual
Format profile : Advanced Simple@L5
Format settings, BVOP : Yes
Format settings, QPel : No
Format settings, GMC : No warppoints
Format settings, Matrix : Default (H.263)
Codec ID : XVID
Codec ID/Hint : XviD
Duration : 1h 40mn
Bit rate : 526 Kbps
Width : 696 pixels
Height : 388 pixels
Display aspect ratio : 16:9
Frame rate : 23.976 fps
Resolution : 8 bits
Colorimetry : 4:2:0
Scan type : Progressive
Bits/(Pixel*Frame) : 0.081
Stream size : 377 MiB (54%)
Writing library : XviD 1.2.1 (UTC 2008-12-04)

Audio:

ID : 1
Format : AC-3
Format/Info : Audio Coding 3
Codec ID : 2000
Duration : 1h 40mn
Bit rate mode : Constant
Bit rate : 448 Kbps
Channel(s) : 6 channels
Channel positions : Front: L C R, Side: L R, LFE
Sampling rate : 48.0 KHz
Resolution : 16 bits
Video delay : 42ms
Stream size : 321 MiB (46%)
Language : English